<svg width="40.000000" height="39.762108" viewBox="0 0 40 39.7621" xmlns="http://www.w3.org/2000/svg" xmlns:xlink="http://www.w3.org/1999/xlink">
	<path id="Union" d="M9.02323 1.61836L3.35331 0.0928802C1.66214 -0.362125 0 0.911926 0 2.66323C0 4.42729 1.43005 5.85735 3.19411 5.85735L8.46295 5.85735C9.65396 5.85735 10.6195 4.89184 10.6195 3.70082C10.6195 2.72559 9.96497 1.87173 9.02323 1.61836ZM6.97062 9.47641L37 9.47641C38.6569 9.47641 40 10.8196 40 12.4764L40 17.6234C40 22.1227 36.6773 25.9308 32.2194 26.5404L10.6688 29.4875C9.13577 29.6972 7.69476 28.7065 7.34154 27.2L4.04984 13.1613C3.60843 11.2787 5.03703 9.47641 6.97062 9.47641ZM8.49557 35.7621C8.49557 33.553 10.1596 31.7621 12.2124 31.7621C14.2651 31.7621 15.9292 33.553 15.9292 35.7621C15.9292 37.9712 14.2651 39.7621 12.2124 39.7621C10.1596 39.7621 8.49557 37.9712 8.49557 35.7621ZM30.6195 31.7621C28.5667 31.7621 26.9027 33.553 26.9027 35.7621C26.9027 37.9712 28.5667 39.7621 30.6195 39.7621C32.6722 39.7621 34.3363 37.9712 34.3363 35.7621C34.3363 33.553 32.6722 31.7621 30.6195 31.7621Z" clip-rule="evenodd" fill-opacity="1.000000" fill-rule="evenodd"/>
</svg>
