<svg width="40" height="40" viewBox="0 0 40 28" xmlns="http://www.w3.org/2000/svg">
<path fill-rule="evenodd" clip-rule="evenodd" d="M8.09136 0L33.3272 25.2358L31.2183 27.3447L27.0228 23.1492C24.8378 24.0225 22.4712 24.585 20 24.585C8.9543 24.585 0 13.3475 0 13.3475C0 13.3475 3.69543 8.70984 9.26675 5.39312L5.9825 2.10886L8.09136 0ZM21.8428 17.9692L24.9965 21.1228C23.6236 21.8785 22.0318 22.3107 20.3344 22.3107C15.1626 22.3107 10.9699 18.2978 10.9699 13.3475C10.9699 11.5826 11.5029 9.93678 12.4232 8.54952L15.4452 11.5716C15.2332 12.1228 15.1171 12.7216 15.1171 13.3475C15.1171 16.0812 17.3332 18.2973 20.0669 18.2973C20.6928 18.2973 21.2916 18.1812 21.8428 17.9692ZM28.0452 18.4353C29.0882 16.99 29.699 15.237 29.699 13.3475C29.699 8.39728 25.5063 4.38432 20.3344 4.38432C18.5072 4.38432 16.8023 4.8852 15.3612 5.75135L13.105 3.49517C15.2544 2.65085 17.5769 2.11006 20 2.11006C31.0457 2.11006 40 13.3475 40 13.3475C40 13.3475 36.3539 17.9233 30.845 21.2351L28.0452 18.4353Z" />
</svg>
