<svg width="40" height="40" viewBox="0 0 40 23"  xmlns="http://www.w3.org/2000/svg">
<path fill-rule="evenodd" clip-rule="evenodd" d="M40 11.2375C40 11.2375 31.0457 5.96046e-08 20 5.96046e-08C8.9543 5.96046e-08 0 11.2375 0 11.2375C0 11.2375 8.9543 22.4749 20 22.4749C31.0457 22.4749 40 11.2375 40 11.2375ZM29.699 11.2375C29.699 6.28721 25.5063 2.27425 20.3344 2.27425C15.1626 2.27425 10.9699 6.28721 10.9699 11.2375C10.9699 16.1877 15.1626 20.2007 20.3344 20.2007C25.5063 20.2007 29.699 16.1877 29.699 11.2375ZM20.0669 6.28762C22.8006 6.28762 25.0167 8.50374 25.0167 11.2375C25.0167 13.9712 22.8006 16.1873 20.0669 16.1873C17.3332 16.1873 15.1171 13.9712 15.1171 11.2375C15.1171 8.50374 17.3332 6.28762 20.0669 6.28762Z" />
</svg>
