<svg width="20.923248" height="19.899200" viewBox="0 0 20.9232 19.8992" xmlns="http://www.w3.org/2000/svg" xmlns:xlink="http://www.w3.org/1999/xlink">
	<defs/>
	<path id="Star 1" d="M10.4616 0L7.99174 7.60052L0 7.6008L6.46529 12.2985L3.99599 19.8992L10.4616 15.202L16.9273 19.8992L14.458 12.2985L20.9232 7.6008L12.9315 7.60052L10.4616 0Z" />
	<path id="Star 1" d="M7.99174 7.60052L0 7.6008L6.46529 12.2985L3.99599 19.8992L10.4616 15.202L16.9273 19.8992L14.458 12.2985L20.9232 7.6008L12.9315 7.60052L10.4616 0L7.99174 7.60052ZM10.4616 3.23569L8.71828 8.60049L3.07733 8.60071L7.64082 11.9165L5.89787 17.2815L10.4616 13.966L15.0254 17.2815L13.2824 11.9165L17.8459 8.60071L12.205 8.60049L10.4616 3.23569Z" />
</svg>
